<svg xmlns="http://www.w3.org/2000/svg" xmlns:ev="http://www.w3.org/2001/xml-events" xmlns:xlink="http://www.w3.org/1999/xlink" width="140.771" height="190.433" class="st9" color-interpolation-filters="sRGB" viewBox="0 0 105.578 142.825" xml:space="preserve"><style type="text/css">.st1,.st2{stroke:#9dbb61}.st1{marker-end:url(#mrkr4-6);stroke-linecap:round;stroke-linejoin:round;stroke-width:2}.st2{fill:#9dbb61;fill-opacity:1;stroke-opacity:1;stroke-width:.44247787610619}.st3,.st4{stroke:#c05046}.st3{marker-end:url(#mrkr4-17);stroke-dasharray:7,5;stroke-linecap:round;stroke-linejoin:round;stroke-width:1}.st4{fill:#c05046;fill-opacity:1;stroke-opacity:1;stroke-width:.28409090909091}.st5,.st6{fill:#fff;stroke:#002060;stroke-linecap:round;stroke-linejoin:round;stroke-width:1}.st6{fill:none;stroke:none;stroke-width:.75}.st7,.st8{fill:#9dbb61;font-family:Calibri;font-size:1.00001em}.st8{fill:#c05046}.st9{fill:none;fill-rule:evenodd;font-size:12px;overflow:visible;stroke-linecap:square;stroke-miterlimit:3}</style><defs id="Markers"><g id="lend4"><path d="M 2 1 L 0 0 L 2 -1 L 2 1" style="stroke:none"/></g><marker id="mrkr4-6" class="st2" markerUnits="strokeWidth" orient="auto" overflow="visible" refX="-4.52"><use transform="scale(-2.26,-2.26)" xlink:href="#lend4"/></marker><marker id="mrkr4-17" class="st4" markerUnits="strokeWidth" orient="auto" overflow="visible" refX="-7.04"><use transform="scale(-3.52,-3.52)" xlink:href="#lend4"/></marker></defs><g><title>Page-1</title><g id="shape63-1" transform="translate(41.3046,-115.817)"><title>Dynamic connector.63</title><path d="M0 142.82 L-19.22 164.13" class="st1"/></g><g id="shape64-7" transform="translate(63.2664,-115.817)"><title>Dynamic connector.64</title><path d="M0 142.82 L20.1 164.24" class="st1"/></g><g id="shape65-12" transform="translate(16.0273,-56.7501)"><title>Dynamic connector.65</title><path d="M0 142.82 L20.72 167.2" class="st3"/></g><g id="shape66-18" transform="translate(89.5509,-56.7501)"><title>Dynamic connector.66</title><path d="M0 142.82 L-21.62 167.29" class="st3"/></g><g id="shape59-23" transform="translate(36.7582,-111.27)"><title>Circle.59</title><path d="M0 127.3 A15.5273 15.5273 0 0 1 31.05 127.3 A15.5273 15.5273 0 1 1 0 127.3 Z" class="st5"/></g><g id="shape60-25" transform="translate(36.7582,-0.5)"><title>Circle.60</title><path d="M0 127.3 A15.5273 15.5273 0 0 1 31.05 127.3 A15.5273 15.5273 0 1 1 0 127.3 Z" class="st5"/></g><g id="shape61-27" transform="translate(0.5,-56.7501)"><title>Circle.61</title><path d="M0 127.3 A15.5273 15.5273 0 0 1 31.05 127.3 A15.5273 15.5273 0 1 1 0 127.3 Z" class="st5"/></g><g id="shape62-29" transform="translate(74.0237,-56.7501)"><title>Circle.62</title><path d="M0 127.3 A15.5273 15.5273 0 0 1 31.05 127.3 A15.5273 15.5273 0 1 1 0 127.3 Z" class="st5"/></g><g id="shape67-31" transform="translate(29.7855,-89.5374)"><title>Sheet.67</title><desc>fork</desc><rect width="45" height="20" x="0" y="122.825" class="st6"/><text x="12.69" y="136.43" class="st7">fork</text></g><g id="shape68-34" transform="translate(29.7855,-35.0173)"><title>Sheet.68</title><desc>join</desc><rect width="45" height="20" x="0" y="122.825" class="st6"/><text x="13.37" y="136.43" class="st8">join</text></g></g></svg>