<svg xmlns="http://www.w3.org/2000/svg" xmlns:ev="http://www.w3.org/2001/xml-events" xmlns:xlink="http://www.w3.org/1999/xlink" width="180.32" height="110.57" class="st6" color-interpolation-filters="sRGB" viewBox="0 0 135.24 82.927" xml:space="preserve"><style type="text/css">.st1{fill:#cbd8ef;stroke:#000;stroke-linecap:round;stroke-linejoin:round;stroke-width:.24}.st2{fill:#000;font-family:Calibri;font-size:.833336em}.st3{fill:#fff;stroke:#000;stroke-linecap:round;stroke-linejoin:round;stroke-width:.24}.st4{fill:#000;font-family:Calibri;font-size:.666664em}.st5{fill:#000;stroke:#000;stroke-linecap:round;stroke-linejoin:round;stroke-width:.24}.st6{fill:none;fill-rule:evenodd;font-size:12px;overflow:visible;stroke-linecap:square;stroke-miterlimit:3}</style><g><title>Page-1</title><g id="shape477-1" transform="translate(0.12,-0.12)"><title>Rectangle.477</title><desc>Group</desc><rect width="135" height="82.688" x="0" y=".24" class="st1"/><text x="54.71" y="13.24" class="st2">Group</text></g><g id="group478-4" transform="translate(-6.30752,74.37) rotate(-90)"><title>Sheet.478</title><g id="shape479-5"><title>Rectangle.400</title><desc>Core 1</desc><rect width="54" height="33.75" x="0" y="49.178" class="st3"/><text x="16.44" y="68.45" class="st4">Core 1</text></g></g><g id="group480-8" transform="translate(-42.3075,74.37) rotate(-90)"><title>Sheet.480</title><g id="shape481-9"><title>Rectangle.400</title><desc>Core 0</desc><rect width="54" height="33.75" x="0" y="49.178" class="st3"/><text x="16.44" y="68.45" class="st4">Core 0</text></g></g><g id="group484-12" transform="translate(45.4425,74.37) rotate(-90)"><title>Sheet.484</title><g id="shape485-13"><title>Rectangle.400</title><desc>Core N</desc><rect width="54" height="33.75" x="0" y="49.178" class="st3"/><text x="15.89" y="68.45" class="st4">Core N</text></g></g><g id="group486-16" transform="translate(80.1825,-35.1569)"><title>Sheet.486</title><g id="shape487-17"><title>Circle.126</title><path d="M0 81.99 a0.9375 0.9375 0 1 1 1.875 -1.42109E-14 a0.9375 0.9375 0 1 1 -1.875 0 Z" class="st5"/></g><g id="shape488-19" transform="translate(4.5,-1.42109E-14)"><title>Circle.127</title><path d="M0 81.99 a0.9375 0.9375 0 1 1 1.875 -1.42109E-14 a0.9375 0.9375 0 1 1 -1.875 0 Z" class="st5"/></g><g id="shape489-21" transform="translate(9,-1.42109E-14)"><title>Circle.128</title><path d="M0 81.99 a0.9375 0.9375 0 1 1 1.875 -1.42109E-14 a0.9375 0.9375 0 1 1 -1.875 0 Z" class="st5"/></g></g></g></svg>