<svg xmlns="http://www.w3.org/2000/svg" xmlns:ev="http://www.w3.org/2001/xml-events" xmlns:xlink="http://www.w3.org/1999/xlink" width="41.726" height="41.726" class="st5" color-interpolation-filters="sRGB" viewBox="0 0 31.294 31.294" xml:space="preserve"><style type="text/css">.st1{fill:#002060;stroke:none;stroke-width:.24}.st1,.st2,.st3,.st4{stroke-linecap:round;stroke-linejoin:round}.st2{fill:#d8d8d8}.st2,.st3,.st4{stroke:#002060;stroke-width:1}.st3{fill:#e5b9b5}.st4{fill:#d7e3bf}.st5{fill:none;fill-rule:evenodd;font-size:12px;overflow:visible;stroke-linecap:square;stroke-miterlimit:3}</style><g><title>Page-1</title><g id="shape51-1" transform="translate(0.12,-0.12)"><title>Circle</title><path d="M0 15.77 A15.5273 15.5273 0 0 1 31.05 15.77 A15.5273 15.5273 0 1 1 0 15.77 Z" class="st1"/></g><g id="shape52-3" transform="translate(5.74863,-9.59736)"><title>Rounded Rectangle.52</title><path d="M1.98 31.29 L17.82 31.29 A1.97969 1.97969 -180 0 0 19.8 29.31 L19.8 21.63 A1.97969 1.97969 -180 0 0 17.82 19.65 L1.98 19.65 A1.97969 1.97969 -180 0 0 0 21.63 L0 29.31 A1.97969 1.97969 -180 0 0 1.98 31.29 Z" class="st2"/></g><g id="shape53-5" transform="translate(8.71822,-19.7851)"><title>Rectangle.53</title><rect width="13.858" height="5.53" x="0" y="25.764" class="st3"/></g><g id="shape54-7" transform="translate(8.71822,-5.81333)"><title>Rectangle.54</title><rect width="13.858" height="5.53" x="0" y="25.764" class="st4"/></g></g></svg>