<svg xmlns="http://www.w3.org/2000/svg" xmlns:ev="http://www.w3.org/2001/xml-events" xmlns:xlink="http://www.w3.org/1999/xlink" width="228.32" height="150.32" class="st7" color-interpolation-filters="sRGB" viewBox="0 0 171.24 112.74" xml:space="preserve"><style type="text/css">.st1{fill:#cbd8ef;stroke:#000;stroke-linecap:round;stroke-linejoin:round;stroke-width:.24}.st2{fill:#000;font-family:Calibri;font-size:.833336em}.st3,.st4{fill:#d7e3bf;stroke:#000;stroke-linecap:round;stroke-linejoin:round;stroke-width:.24}.st4{fill:#fff}.st5{fill:#000;font-family:Calibri;font-size:.666664em}.st6{fill:#000;stroke:#000;stroke-linecap:round;stroke-linejoin:round;stroke-width:.24}.st7{fill:none;fill-rule:evenodd;font-size:12px;overflow:visible;stroke-linecap:square;stroke-miterlimit:3}</style><g><title>Page-1</title><g id="shape490-1" transform="translate(0.12,-0.12)"><title>Rectangle.490</title><desc>Group</desc><rect width="171" height="112.5" x="0" y=".24" class="st1"/><text x="72.71" y="13.24" class="st2">Group</text></g><g id="shape501-4" transform="translate(6.87,-7.43248)"><title>Rectangle.501</title><desc>Socket 0</desc><rect width="69.75" height="84.375" x="0" y="28.365" class="st3"/><text x="17.73" y="41.37" class="st2">Socket 0</text></g><g id="group491-7" transform="translate(13.62,-43.995)"><title>Sheet.491</title><g id="shape492-8"><title>Rectangle.400</title><desc>Core 1</desc><rect width="54" height="12.375" x="0" y="100.365" class="st4"/><text x="16.44" y="108.95" class="st5">Core 1</text></g></g><g id="group493-11" transform="translate(13.62,-60.87)"><title>Sheet.493</title><g id="shape494-12"><title>Rectangle.400</title><desc>Core 0</desc><rect width="54" height="12.375" x="0" y="100.365" class="st4"/><text x="16.44" y="108.95" class="st5">Core 0</text></g></g><g id="group495-15" transform="translate(13.62,-13.62)"><title>Sheet.495</title><g id="shape496-16"><title>Rectangle.400</title><desc>Core N</desc><rect width="54" height="12.375" x="0" y="100.365" class="st4"/><text x="15.89" y="108.95" class="st5">Core N</text></g></g><g id="group497-19" transform="translate(152.959,72.3075) rotate(90)"><title>Sheet.497</title><g id="shape498-20"><title>Circle.126</title><path d="M0 111.8 a0.9375 0.9375 0 1 1 1.875 -1.42109E-14 a0.9375 0.9375 0 1 1 -1.875 0 Z" class="st6"/></g><g id="shape499-22" transform="translate(4.5,0)"><title>Circle.127</title><path d="M0 111.8 a0.9375 0.9375 0 1 1 1.875 -1.42109E-14 a0.9375 0.9375 0 1 1 -1.875 0 Z" class="st6"/></g><g id="shape500-24" transform="translate(9,0)"><title>Circle.128</title><path d="M0 111.8 a0.9375 0.9375 0 1 1 1.875 -1.42109E-14 a0.9375 0.9375 0 1 1 -1.875 0 Z" class="st6"/></g></g><g id="shape502-26" transform="translate(94.62,-7.43248)"><title>Rectangle.502</title><desc>Socket N</desc><rect width="69.75" height="84.375" x="0" y="28.365" class="st3"/><text x="17.03" y="41.37" class="st2">Socket N</text></g><g id="group503-29" transform="translate(101.37,-43.995)"><title>Sheet.503</title><g id="shape504-30"><title>Rectangle.400</title><desc>Core 1</desc><rect width="54" height="12.375" x="0" y="100.365" class="st4"/><text x="16.44" y="108.95" class="st5">Core 1</text></g></g><g id="group505-33" transform="translate(101.37,-60.87)"><title>Sheet.505</title><g id="shape506-34"><title>Rectangle.400</title><desc>Core 0</desc><rect width="54" height="12.375" x="0" y="100.365" class="st4"/><text x="16.44" y="108.95" class="st5">Core 0</text></g></g><g id="group507-37" transform="translate(101.37,-13.62)"><title>Sheet.507</title><g id="shape508-38"><title>Rectangle.400</title><desc>Core N</desc><rect width="54" height="12.375" x="0" y="100.365" class="st4"/><text x="15.89" y="108.95" class="st5">Core N</text></g></g><g id="group509-41" transform="translate(240.709,72.3075) rotate(90)"><title>Sheet.509</title><g id="shape510-42"><title>Circle.126</title><path d="M0 111.8 a0.9375 0.9375 0 1 1 1.875 -1.42109E-14 a0.9375 0.9375 0 1 1 -1.875 0 Z" class="st6"/></g><g id="shape511-44" transform="translate(4.5,0)"><title>Circle.127</title><path d="M0 111.8 a0.9375 0.9375 0 1 1 1.875 -1.42109E-14 a0.9375 0.9375 0 1 1 -1.875 0 Z" class="st6"/></g><g id="shape512-46" transform="translate(9,0)"><title>Circle.128</title><path d="M0 111.8 a0.9375 0.9375 0 1 1 1.875 -1.42109E-14 a0.9375 0.9375 0 1 1 -1.875 0 Z" class="st6"/></g></g><g id="group513-48" transform="translate(80.1825,-49.245)"><title>Sheet.513</title><g id="shape514-49"><title>Circle.126</title><path d="M0 111.8 a0.9375 0.9375 0 1 1 1.875 -1.42109E-14 a0.9375 0.9375 0 1 1 -1.875 0 Z" class="st6"/></g><g id="shape515-51" transform="translate(4.5,0)"><title>Circle.127</title><path d="M0 111.8 a0.9375 0.9375 0 1 1 1.875 -1.42109E-14 a0.9375 0.9375 0 1 1 -1.875 0 Z" class="st6"/></g><g id="shape516-53" transform="translate(9,0)"><title>Circle.128</title><path d="M0 111.8 a0.9375 0.9375 0 1 1 1.875 -1.42109E-14 a0.9375 0.9375 0 1 1 -1.875 0 Z" class="st6"/></g></g></g></svg>