<svg xmlns="http://www.w3.org/2000/svg" xmlns:ev="http://www.w3.org/2001/xml-events" xmlns:xlink="http://www.w3.org/1999/xlink" width="214.291" height="360.739" class="st9" color-interpolation-filters="sRGB" viewBox="0 0 160.719 270.555" xml:space="preserve"><style type="text/css">.st1,.st2{stroke:#9dbb61}.st1{marker-end:url(#mrkr4-6);stroke-linecap:round;stroke-linejoin:round;stroke-width:2}.st2{fill:#9dbb61;fill-opacity:1;stroke-opacity:1;stroke-width:.44247787610619}.st3,.st4{stroke:#c05046}.st3{marker-end:url(#mrkr4-27);stroke-dasharray:7,5;stroke-linecap:round;stroke-linejoin:round;stroke-width:1}.st4{fill:#c05046;fill-opacity:1;stroke-opacity:1;stroke-width:.28409090909091}.st5{fill:none;stroke:none;stroke-linecap:round;stroke-linejoin:round;stroke-width:.75}.st6{fill:#b79d22;font-family:Calibri;font-size:1.00001em}.st7,.st8{fill:#fff;stroke:#002060;stroke-linecap:round;stroke-linejoin:round;stroke-width:1}.st8{fill:#b79d22}.st9{fill:none;fill-rule:evenodd;font-size:12px;overflow:visible;stroke-linecap:square;stroke-miterlimit:3}</style><defs id="Markers"><g id="lend4"><path d="M 2 1 L 0 0 L 2 -1 L 2 1" style="stroke:none"/></g><marker id="mrkr4-6" class="st2" markerUnits="strokeWidth" orient="auto" overflow="visible" refX="-4.52"><use transform="scale(-2.26,-2.26)" xlink:href="#lend4"/></marker><marker id="mrkr4-27" class="st4" markerUnits="strokeWidth" orient="auto" overflow="visible" refX="-7.04"><use transform="scale(-3.52,-3.52)" xlink:href="#lend4"/></marker></defs><g><title>Page-1</title><g id="shape117-1" transform="translate(96.4451,-243.546)"><title>Dynamic connector.117</title><path d="M0 270.55 L-19.22 291.86" class="st1"/></g><g id="shape118-7" transform="translate(118.407,-243.546)"><title>Dynamic connector.118</title><path d="M0 270.55 L20.1 291.97" class="st1"/></g><g id="shape119-12" transform="translate(82.1486,-189.026)"><title>Dynamic connector.119</title><path d="M0 270.55 L19.42 293.41" class="st1"/></g><g id="shape125-17" transform="translate(60.1868,-189.026)"><title>Dynamic connector.125</title><path d="M0 270.55 L-20.3 293.52" class="st1"/></g><g id="shape131-22" transform="translate(33.9023,-128.23)"><title>Dynamic connector.131</title><path d="M0 270.55 L32.04 299.51" class="st3"/></g><g id="shape132-28" transform="translate(98.4259,-128.23)"><title>Dynamic connector.132</title><path d="M9 270.55 L9 360.19" class="st3"/></g><g id="shape133-33" transform="translate(71.1677,-63.5)"><title>Dynamic connector.133</title><path d="M0 270.55 L30.98 297.85" class="st3"/></g><g id="shape134-38" transform="translate(144.691,-184.48)"><title>Dynamic connector.134</title><path d="M0 270.55 L-35.6 416.64" class="st3"/></g><g id="shape135-43" transform="translate(0.375,-29.5545)"><title>Sheet.135</title><desc>continuations</desc><rect width="80.496" height="20" x="0" y="250.555" class="st5"/><text x="6.78" y="264.15" class="st6">continuations</text></g><g id="shape120-46" transform="translate(91.8987,-239)"><title>Circle.120</title><path d="M0 255.03 A15.5273 15.5273 0 0 1 31.05 255.03 A15.5273 15.5273 0 1 1 0 255.03 Z" class="st7"/></g><g id="shape121-48" transform="translate(91.8987,-128.23)"><title>Circle.121</title><path d="M0 255.03 A15.5273 15.5273 0 0 1 31.05 255.03 A15.5273 15.5273 0 1 1 0 255.03 Z" class="st7"/></g><g id="shape122-50" transform="translate(55.6404,-184.48)"><title>Circle.122</title><path d="M0 255.03 A15.5273 15.5273 0 0 1 31.05 255.03 A15.5273 15.5273 0 1 1 0 255.03 Z" class="st7"/></g><g id="shape123-52" transform="translate(129.164,-184.48)"><title>Circle.123</title><path d="M0 255.03 A15.5273 15.5273 0 0 1 31.05 255.03 A15.5273 15.5273 0 1 1 0 255.03 Z" class="st7"/></g><g id="shape124-54" transform="translate(18.375,-128.23)"><title>Circle.124</title><path d="M0 255.03 A15.5273 15.5273 0 0 1 31.05 255.03 A15.5273 15.5273 0 1 1 0 255.03 Z" class="st7"/></g><g id="shape129-56" transform="translate(55.6404,-63.5)"><title>Circle.129</title><path d="M0 255.03 A15.5273 15.5273 0 0 1 31.05 255.03 A15.5273 15.5273 0 1 1 0 255.03 Z" class="st8"/></g><g id="shape130-58" transform="translate(91.8987,-0.5)"><title>Circle.130</title><path d="M0 255.03 A15.5273 15.5273 0 0 1 31.05 255.03 A15.5273 15.5273 0 1 1 0 255.03 Z" class="st8"/></g></g></svg>