<svg xmlns="http://www.w3.org/2000/svg" xmlns:ev="http://www.w3.org/2001/xml-events" xmlns:xlink="http://www.w3.org/1999/xlink" width="61.333" height="68.333" class="st6" color-interpolation-filters="sRGB" viewBox="0 0 46 51.25" xml:space="preserve"><style type="text/css">.st1{fill:#d8d8d8;stroke:#7f7f7f;stroke-linecap:round;stroke-linejoin:round;stroke-width:1}.st2{fill:#000;font-family:Calibri;font-size:1.16666em}.st3{fill:#e5b9b5;stroke:#c00000;stroke-linecap:round;stroke-linejoin:round;stroke-width:1}.st4{fill:#000;font-family:Calibri;font-size:.833336em}.st5{fill:#d7e3bf;stroke:#789440;stroke-linecap:round;stroke-linejoin:round;stroke-width:1}.st6{fill:none;fill-rule:evenodd;font-size:12px;overflow:visible;stroke-linecap:square;stroke-miterlimit:3}</style><g><title>Page-1</title><g id="shape45-1" transform="translate(0.499926,-10.25)"><title>Rounded Rectangle.45</title><desc>Task</desc><path d="M4.5 51.25 L40.5 51.25 A4.49993 4.49993 -180 0 0 45 46.75 L45 25.75 A4.49993 4.49993 -180 0 0 40.5 21.25 L4.5 21.25 A4.49993 4.49993 -180 0 0 -0 25.75 L0 46.75 A4.49993 4.49993 -180 0 0 4.5 51.25 Z" class="st1"/><text x="9.82" y="40.45" class="st2">Task</text></g><g id="shape46-4" transform="translate(7.24992,-36.5)"><title>Rectangle.46</title><desc>Func</desc><rect width="31.5" height="14.25" x="0" y="37" class="st3"/><text x="6.08" y="47.13" class="st4">Func</text></g><g id="shape47-7" transform="translate(7.24992,-0.5)"><title>Rectangle.47</title><desc>Data</desc><rect width="31.5" height="14.25" x="0" y="37" class="st5"/><text x="6.21" y="47.13" class="st4">Data</text></g></g></svg>