<svg xmlns="http://www.w3.org/2000/svg" xmlns:ev="http://www.w3.org/2001/xml-events" xmlns:xlink="http://www.w3.org/1999/xlink" width="630.167" height="97.945" class="st19" color-interpolation-filters="sRGB" viewBox="0 0 472.625 73.459" xml:space="preserve"><style type="text/css">.st1,.st2{stroke:#002060}.st1{marker-start:url(#mrkr4-6);stroke-linecap:round;stroke-linejoin:round;stroke-width:2}.st2{fill:#002060;fill-opacity:1;stroke-opacity:1;stroke-width:.44247787610619}.st3{fill:#fff;stroke:none;stroke-linecap:butt;stroke-width:7.2}.st4{fill:#000;font-family:Calibri;font-size:.666664em}.st5,.st6{fill:#fff;stroke:#002060;stroke-linecap:round;stroke-linejoin:round;stroke-width:1}.st6{fill:none;stroke:none;stroke-width:.75}.st7{fill:#000;font-family:Calibri;font-size:1.00001em}.st8,.st9{stroke:#000}.st8{marker-end:url(#mrkr4-24);stroke-dasharray:5.25,3.75;stroke-linecap:round;stroke-linejoin:round;stroke-width:.75}.st9{fill:#000;fill-opacity:1;stroke-opacity:1;stroke-width:.22935779816514}.st10,.st11{stroke:#d8d8d8}.st10{marker-start:url(#mrkr4-38);stroke-linecap:round;stroke-linejoin:round;stroke-width:2}.st11{fill:#d8d8d8;fill-opacity:1;stroke-opacity:1;stroke-width:.44247787610619}.st12{fill:#d8d8d8;font-family:Calibri;font-size:.666664em}.st13,.st14{stroke:#d8d8d8}.st13{marker-end:url(#mrkr4-56);stroke-dasharray:5.25,3.75;stroke-linecap:round;stroke-linejoin:round;stroke-width:.75}.st14{fill:#d8d8d8;fill-opacity:1;stroke-opacity:1;stroke-width:.22935779816514}.st15{fill:#fff;stroke:none;stroke-linecap:butt}.st16{fill:red;font-family:Corbel;font-size:4.99999em}.st17{fill:#9dbb61;stroke:#000;stroke-linecap:round;stroke-linejoin:round;stroke-width:.24}.st18{fill:#000;font-family:Calibri;font-size:.833336em}.st19{fill:none;fill-rule:evenodd;font-size:12px;overflow:visible;stroke-linecap:square;stroke-miterlimit:3}</style><defs id="Markers"><g id="lend4"><path d="M 2 1 L 0 0 L 2 -1 L 2 1" style="stroke:none"/></g><marker id="mrkr4-6" class="st2" markerUnits="strokeWidth" orient="auto" overflow="visible" refX="4.34"><use transform="scale(2.26)" xlink:href="#lend4"/></marker><marker id="mrkr4-24" class="st9" markerUnits="strokeWidth" orient="auto" overflow="visible" refX="-8.24"><use transform="scale(-4.36,-4.36)" xlink:href="#lend4"/></marker><marker id="mrkr4-38" class="st11" markerUnits="strokeWidth" orient="auto" overflow="visible" refX="4.34"><use transform="scale(2.26)" xlink:href="#lend4"/></marker><marker id="mrkr4-56" class="st14" markerUnits="strokeWidth" orient="auto" overflow="visible" refX="-8.24"><use transform="scale(-4.36,-4.36)" xlink:href="#lend4"/></marker></defs><g><title>Page-1</title><g id="shape1-1" transform="translate(81.1523,-27.3392)"><title>Dynamic connector.102</title><desc>points-to</desc><path d="M8.68 64.46 L9.04 64.46 L67.95 64.46" class="st1"/><rect width="29.617" height="9.6" x="19.164" y="53.207" class="st3"/><text x="19.16" y="60.41" class="st4">points-to</text></g><g id="shape4-9" transform="translate(50.0977,-20.8119)"><title>Circle.106</title><path d="M0 57.93 A15.5273 15.5273 0 0 1 31.05 57.93 A15.5273 15.5273 0 1 1 0 57.93 Z" class="st5"/></g><g id="shape6-11" transform="translate(149.098,-20.8119)"><title>Circle.108</title><path d="M0 57.93 A15.5273 15.5273 0 0 1 31.05 57.93 A15.5273 15.5273 0 1 1 0 57.93 Z" class="st5"/></g><g id="shape14-13" transform="translate(41.5,-53.0417)"><title>Sheet.14</title><desc>parent</desc><rect width="48.25" height="20" x="0" y="53.459" class="st6"/><text x="7.86" y="67.06" class="st7">parent</text></g><g id="shape16-16" transform="translate(143.875,-53.0417)"><title>Sheet.16</title><desc>child</desc><rect width="41.5" height="20" x="0" y="53.459" class="st6"/><text x="9.15" y="67.06" class="st7">child</text></g><g id="shape17-19" transform="translate(65.625,-11.8119)"><title>Dynamic connector</title><desc>refers-to</desc><path d="M0 64.46 C-0 77.96 24.75 77.96 49.5 77.96 C69.74 77.96 89.98 77.96 96.68 70.58 L96.81 70.24" class="st8"/><rect width="28.457" height="9.6" x="35.272" y="66.929" class="st3"/><text x="35.27" y="74.13" class="st4">refers-to</text></g><g id="shape18-27" transform="translate(0.375,-26.3392)"><title>Sheet.18</title><desc>ref count = 2</desc><rect width="51.875" height="20" x="0" y="53.459" class="st6"/><text x="5.26" y="65.86" class="st4">ref count = 2</text></g><g id="shape20-30" transform="translate(174.75,-26.3814)"><title>Sheet.20</title><desc>ref count = 1</desc><rect width="58.5" height="20" x="0" y="53.459" class="st6"/><text x="8.57" y="65.86" class="st4">ref count = 1</text></g><g id="shape22-33" transform="translate(359.527,-27.3814)"><title>Dynamic connector.22</title><desc>points-to</desc><path d="M8.68 64.46 L9.04 64.46 L67.95 64.46" class="st10"/><rect width="29.617" height="9.6" x="19.164" y="53.207" class="st3"/><text x="19.16" y="60.41" class="st12">points-to</text></g><g id="shape23-41" transform="translate(328.473,-20.8541)"><title>Circle.23</title><path d="M0 57.93 A15.5273 15.5273 0 0 1 31.05 57.93 A15.5273 15.5273 0 1 1 0 57.93 Z" class="st5"/></g><g id="shape24-43" transform="translate(427.473,-20.8541)"><title>Circle.24</title><path d="M0 57.93 A15.5273 15.5273 0 0 1 31.05 57.93 A15.5273 15.5273 0 1 1 0 57.93 Z" class="st5"/></g><g id="shape25-45" transform="translate(319.875,-53.0839)"><title>Sheet.25</title><desc>parent</desc><rect width="48.25" height="20" x="0" y="53.459" class="st6"/><text x="7.86" y="67.06" class="st7">parent</text></g><g id="shape26-48" transform="translate(422.25,-53.0839)"><title>Sheet.26</title><desc>child</desc><rect width="41.5" height="20" x="0" y="53.459" class="st6"/><text x="9.15" y="67.06" class="st7">child</text></g><g id="shape27-51" transform="translate(344,-11.8541)"><title>Dynamic connector.27</title><desc>refers-to</desc><path d="M0 64.46 C0 77.96 24.75 77.96 49.5 77.96 C69.74 77.96 89.98 77.96 96.68 70.58 L96.81 70.24" class="st13"/><rect width="28.457" height="9.6" x="35.272" y="66.929" class="st15"/><text x="35.27" y="74.13" class="st12">refers-to</text></g><g id="shape28-59" transform="translate(279.375,-26.3392)"><title>Sheet.28</title><desc>ref count = 1</desc><rect width="51.152" height="20" x="0" y="53.459" class="st6"/><text x="4.89" y="65.86" class="st4">ref count = 1</text></g><g id="shape32-62" transform="translate(413.75,-10.5064)"><title>Sheet.32</title><desc>X</desc><rect width="58.5" height="51.75" x="0" y="21.709" class="st6"/><text x="11.73" y="65.58" class="st16">X</text></g><g id="shape33-65" transform="translate(278.625,110.536) rotate(180)"><title>Simple Arrow</title><desc>Exec</desc><path d="M0 73.46 L12 61.46 L12 67.46 L45.37 67.46 L45.37 73.46 L45.37 79.46 L12 79.46 L12 85.45 L0 73.46 Z" class="st17"/><text x="-31.9" y="-70.46" class="st18" transform="rotate(180)">Exec</text></g></g></svg>