<svg xmlns="http://www.w3.org/2000/svg" xmlns:ev="http://www.w3.org/2001/xml-events" xmlns:xlink="http://www.w3.org/1999/xlink" width="161.334" height="76.543" class="st11" color-interpolation-filters="sRGB" viewBox="0 0 121 57.407" xml:space="preserve"><style type="text/css">.st1{fill:#002060;stroke:none;stroke-linecap:round;stroke-linejoin:round;stroke-width:.24}.st2{fill:#fff;font-family:Times New Roman;font-size:1.00001em;font-style:italic;font-weight:700}.st3{baseline-shift:-32.4941%;font-size:.649882em}.st4,.st5{stroke:#002060}.st4{marker-end:url(#mrkr4-14);stroke-linecap:round;stroke-linejoin:round;stroke-width:1.75}.st5{fill:#002060;fill-opacity:1;stroke-opacity:1;stroke-width:.40983606557377}.st6{fill:#fff;stroke:none;stroke-linecap:butt;stroke-width:7.2}.st7{fill:#002060;font-family:Times New Roman;font-size:1.00001em;font-style:italic;font-weight:700}.st8{fill:none;stroke:none;stroke-linecap:round;stroke-linejoin:round;stroke-width:.75}.st10,.st9{font-size:1em}.st10{font-family:Calibri;font-style:normal;font-weight:400}.st11{fill:none;fill-rule:evenodd;font-size:12px;overflow:visible;stroke-linecap:square;stroke-miterlimit:3}</style><defs id="Markers"><g id="lend4"><path d="M 2 1 L 0 0 L 2 -1 L 2 1" style="stroke:none"/></g><marker id="mrkr4-14" class="st5" markerUnits="strokeWidth" orient="auto" overflow="visible" refX="-4.88"><use transform="scale(-2.44,-2.44)" xlink:href="#lend4"/></marker></defs><g><title>Page-1</title><g id="shape55-1" transform="translate(8.82873,-17.178)"><title>Circle.55</title><desc>N0</desc><path d="M0 41.88 A15.5273 15.5273 0 0 1 31.05 41.88 A15.5273 15.5273 0 1 1 0 41.88 Z" class="st1"/><text x="9.24" y="45.48" class="st2">N<tspan class="st3" dy="-.279em">0</tspan></text></g><g id="shape56-5" transform="translate(77.1487,-17.178)"><title>Circle.56</title><desc>N1</desc><path d="M0 41.88 A15.5273 15.5273 0 0 1 31.05 41.88 A15.5273 15.5273 0 1 1 0 41.88 Z" class="st1"/><text x="9.24" y="45.48" class="st2">N<tspan class="st3" dy="-.279em">1</tspan></text></g><g id="shape57-9" transform="translate(39.8832,-23.7052)"><title>Dynamic connector.57</title><desc>E0,1</desc><path d="M0 48.41 L28.73 48.41" class="st4"/><rect width="17.753" height="15.101" x="9.756" y="27.707" class="st6"/><text x="9.76" y="38.51" class="st7">E<tspan class="st3" dy="-.279em">0,1</tspan></text></g><g id="shape58-18" transform="translate(0.375,-0.960595)"><title>Sheet.58</title><desc>N0 happens-before N1</desc><rect width="120.25" height="13.802" x="0" y="43.605" class="st8"/><text x="5.7" y="54.14" class="st7">N<tspan class="st3" dy="-.279em">0</tspan><tspan class="st9" dy=".181em"> </tspan><tspan class="st10">happens</tspan><tspan class="st10">-</tspan><tspan class="st10">before</tspan> N<tspan class="st3" dy="-.279em">1</tspan></text></g></g></svg>