<svg xmlns="http://www.w3.org/2000/svg" xmlns:ev="http://www.w3.org/2001/xml-events" xmlns:xlink="http://www.w3.org/1999/xlink" width="518.57" height="299.32" class="st14" color-interpolation-filters="sRGB" viewBox="0 0 388.928 224.49" xml:space="preserve"><style type="text/css">.st1{fill:#ddd6e5;stroke:#000;stroke-linecap:round;stroke-linejoin:round;stroke-width:.24}.st2{fill:#000;font-family:Calibri;font-size:.833336em}.st3,.st4,.st5{stroke:#000;stroke-linecap:round;stroke-linejoin:round}.st3{fill:#eee7a4;stroke-width:.24}.st4{stroke-width:.75}.st5{fill:#fff;stroke-width:.24}.st6{fill:#000;font-family:Calibri;font-size:.666664em}.st7{font-size:1em}.st8,.st9{fill:#000;stroke:#000;stroke-linecap:round;stroke-linejoin:round;stroke-width:.24}.st9{fill:#f8f4d6}.st10,.st11{stroke:#f59d56}.st10{marker-start:url(#mrkr4-136);stroke-linecap:round;stroke-linejoin:round;stroke-width:.75}.st11{fill:#f59d56;fill-opacity:1;stroke-opacity:1;stroke-width:.22935779816514}.st12{fill:none;stroke:none;stroke-linecap:round;stroke-linejoin:round;stroke-width:.24}.st13{fill:#f59d56;font-family:Calibri;font-size:.833336em}.st14{fill:none;fill-rule:evenodd;font-size:12px;overflow:visible;stroke-linecap:square;stroke-miterlimit:3}</style><defs id="Markers"><g id="lend4"><path d="M 2 1 L 0 0 L 2 -1 L 2 1" style="stroke:none"/></g><marker id="mrkr4-136" class="st11" markerUnits="strokeWidth" orient="auto" overflow="visible" refX="8.24"><use transform="scale(4.36)" xlink:href="#lend4"/></marker></defs><g><title>Page-1</title><g id="shape924-1" transform="translate(0.12,-123.307)"><title>Rectangle.924</title><desc>Micro-scheduler (0)</desc><rect width="171" height="82.688" x="0" y="141.802" class="st1"/><text x="45.54" y="154.8" class="st2">Micro-scheduler (0)</text></g><g id="shape925-4" transform="translate(110.651,-0.12)"><title>Rectangle.925</title><desc>Worker Pool (j)</desc><rect width="171" height="87.75" x="0" y="136.74" class="st3"/><text x="54.67" y="217.49" class="st2">Worker Pool (j)</text></g><g id="shape926-7" transform="translate(134.276,-81.7629)"><title>Dynamic connector.926</title><path d="M0 224.49 L-110.53 174.51" class="st4"/></g><g id="shape927-10" transform="translate(170.276,-81.7629)"><title>Dynamic connector.927</title><path d="M0 224.49 L-15.81 217.34 A3 3 -180 0 0 -21.28 214.87 L-110.53 174.51" class="st4"/></g><g id="shape928-13" transform="translate(222.026,-81.7629)"><title>Dynamic connector.928</title><path d="M0 224.49 L-23.54 213.84 A3 3 -180 0 0 -29.01 211.37 L-42.46 205.29 A3 3 -180 0 0 -47.93 202.82 L-110.53 174.51" class="st4"/></g><g id="shape929-16" transform="translate(258.026,-81.7629)"><title>Dynamic connector.929</title><path d="M0 224.49 L-15.55 217.46 A3 3 -180 0 0 -21.01 214.99 L-41.82 205.58 A3 3 -180 0 0 -47.29 203.11 L-61.01 196.9 A3 3 -180 0 0 -66.47 194.43 L-110.53 174.51" class="st4"/></g><g id="group930-19" transform="translate(-147.87,92.745) rotate(-90)"><title>Sheet.930</title><g id="shape931-20"><title>Rectangle.400</title><desc>Local Scheduler (0,1)</desc><rect width="54" height="33.75" x="0" y="190.74" class="st5"/><text x="18.68" y="200.42" class="st6">Local <tspan x="10.87" class="st7" dy="1.2em">Scheduler </tspan><tspan x="19.52" class="st7" dy="1.2em">(0,1)</tspan></text></g></g><g id="group932-25" transform="translate(-183.87,92.745) rotate(-90)"><title>Sheet.932</title><g id="shape933-26"><title>Rectangle.400</title><desc>Local Scheduler (0,0)</desc><rect width="54" height="33.75" x="0" y="190.74" class="st5"/><text x="18.68" y="200.42" class="st6">Local <tspan x="10.87" class="st7" dy="1.2em">Scheduler </tspan><tspan x="19.52" class="st7" dy="1.2em">(0,0)</tspan></text></g></g><g id="group934-31" transform="translate(-60.12,92.745) rotate(-90)"><title>Sheet.934</title><g id="shape935-32"><title>Rectangle.400</title><desc>Local Scheduler (0,k)</desc><rect width="54" height="33.75" x="0" y="190.74" class="st5"/><text x="18.68" y="200.42" class="st6">Local <tspan x="10.87" class="st7" dy="1.2em">Scheduler </tspan><tspan x="19.73" class="st7" dy="1.2em">(0,k)</tspan></text></g></g><g id="group936-37" transform="translate(-96.12,92.745) rotate(-90)"><title>Sheet.936</title><g id="shape937-38"><title>Rectangle.400</title><desc>Local Scheduler (0,k-1)</desc><rect width="54" height="33.75" x="0" y="190.74" class="st5"/><text x="18.68" y="200.42" class="st6">Local <tspan x="10.87" class="st7" dy="1.2em">Scheduler </tspan><tspan x="16.48" class="st7" dy="1.2em">(0,k</tspan>-1)</text></g></g><g id="group938-43" transform="translate(80.1825,-158.344)"><title>Sheet.938</title><g id="shape939-44"><title>Circle.126</title><path d="M0 223.55 a0.9375 0.9375 0 1 1 1.875 -2.84217E-14 a0.9375 0.9375 0 1 1 -1.875 0 Z" class="st8"/></g><g id="shape940-46" transform="translate(4.5,0)"><title>Circle.127</title><path d="M0 223.55 a0.9375 0.9375 0 1 1 1.875 -2.84217E-14 a0.9375 0.9375 0 1 1 -1.875 0 Z" class="st8"/></g><g id="shape941-48" transform="translate(9,0)"><title>Circle.128</title><path d="M0 223.55 a0.9375 0.9375 0 1 1 1.875 -2.84217E-14 a0.9375 0.9375 0 1 1 -1.875 0 Z" class="st8"/></g></g><g id="group942-50" transform="translate(190.714,-54.8444)"><title>Sheet.942</title><g id="shape943-51"><title>Circle.126</title><path d="M0 223.55 a0.9375 0.9375 0 1 1 1.875 -2.84217E-14 a0.9375 0.9375 0 1 1 -1.875 0 Z" class="st8"/></g><g id="shape944-53" transform="translate(4.5,0)"><title>Circle.127</title><path d="M0 223.55 a0.9375 0.9375 0 1 1 1.875 -2.84217E-14 a0.9375 0.9375 0 1 1 -1.875 0 Z" class="st8"/></g><g id="shape945-55" transform="translate(9,0)"><title>Circle.128</title><path d="M0 223.55 a0.9375 0.9375 0 1 1 1.875 -2.84217E-14 a0.9375 0.9375 0 1 1 -1.875 0 Z" class="st8"/></g></g><g id="group946-57" transform="translate(-37.3388,202.513) rotate(-90)"><title>Sheet.946</title><g id="shape947-58"><title>Rectangle.400</title><desc>Worker (j,1)</desc><rect width="59.786" height="33.75" x="0" y="190.74" class="st9"/><text x="10.31" y="201.94" class="st6">Worker (j,1)</text></g><g id="shape948-61" transform="translate(4.98212,-3.37498)"><title>Rectangle.399</title><desc>SW Thread</desc><rect width="49.821" height="15.75" x="0" y="208.74" class="st5"/><text x="7.16" y="219.01" class="st6">SW Thread</text></g></g><g id="group949-64" transform="translate(-73.3388,202.513) rotate(-90)"><title>Sheet.949</title><g id="shape950-65"><title>Rectangle.400</title><desc>Worker (j,0)</desc><rect width="59.786" height="33.75" x="0" y="190.74" class="st9"/><text x="10.31" y="201.94" class="st6">Worker (j,0)</text></g><g id="shape951-68" transform="translate(4.98212,-3.37498)"><title>Rectangle.399</title><desc>SW Thread</desc><rect width="49.821" height="15.75" x="0" y="208.74" class="st5"/><text x="7.16" y="219.01" class="st6">SW Thread</text></g></g><g id="group952-71" transform="translate(50.4112,202.513) rotate(-90)"><title>Sheet.952</title><g id="shape953-72"><title>Rectangle.400</title><desc>Worker (j,k)</desc><rect width="59.786" height="33.75" x="0" y="190.74" class="st9"/><text x="10.52" y="201.94" class="st6">Worker (j,k)</text></g><g id="shape954-75" transform="translate(4.98212,-3.37498)"><title>Rectangle.399</title><desc>SW Thread</desc><rect width="49.821" height="15.75" x="0" y="208.74" class="st5"/><text x="7.16" y="219.01" class="st6">SW Thread</text></g></g><g id="group955-78" transform="translate(14.4112,202.513) rotate(-90)"><title>Sheet.955</title><g id="shape956-79"><title>Rectangle.400</title><desc>Worker (j,k-1)</desc><rect width="59.786" height="33.75" x="0" y="190.74" class="st9"/><text x="7.27" y="201.94" class="st6">Worker (j,k-1)</text></g><g id="shape957-82" transform="translate(4.98212,-3.37498)"><title>Rectangle.399</title><desc>SW Thread</desc><rect width="49.821" height="15.75" x="0" y="208.74" class="st5"/><text x="7.16" y="219.01" class="st6">SW Thread</text></g></g><g id="shape958-85" transform="translate(217.808,-123.307)"><title>Rectangle.958</title><desc>Micro-scheduler (1)</desc><rect width="171" height="82.688" x="0" y="141.802" class="st1"/><text x="45.54" y="154.8" class="st2">Micro-scheduler (1)</text></g><g id="group959-88" transform="translate(69.8175,92.745) rotate(-90)"><title>Sheet.959</title><g id="shape960-89"><title>Rectangle.400</title><desc>Local Scheduler (1,1)</desc><rect width="54" height="33.75" x="0" y="190.74" class="st5"/><text x="18.68" y="200.42" class="st6">Local <tspan x="10.87" class="st7" dy="1.2em">Scheduler </tspan><tspan x="19.52" class="st7" dy="1.2em">(1,1)</tspan></text></g></g><g id="group961-94" transform="translate(30.7238,92.745) rotate(-90)"><title>Sheet.961</title><g id="shape962-95"><title>Rectangle.400</title><desc>Local Scheduler (1,0)</desc><rect width="54" height="33.75" x="0" y="190.74" class="st5"/><text x="18.68" y="200.42" class="st6">Local <tspan x="10.87" class="st7" dy="1.2em">Scheduler </tspan><tspan x="19.52" class="st7" dy="1.2em">(1,0)</tspan></text></g></g><g id="group963-100" transform="translate(157.568,92.745) rotate(-90)"><title>Sheet.963</title><g id="shape964-101"><title>Rectangle.400</title><desc>Local Scheduler (1,k)</desc><rect width="54" height="33.75" x="0" y="190.74" class="st5"/><text x="18.68" y="200.42" class="st6">Local <tspan x="10.87" class="st7" dy="1.2em">Scheduler </tspan><tspan x="19.73" class="st7" dy="1.2em">(1,k)</tspan></text></g></g><g id="group965-106" transform="translate(121.568,92.745) rotate(-90)"><title>Sheet.965</title><g id="shape966-107"><title>Rectangle.400</title><desc>Local Scheduler (1,k-1)</desc><rect width="54" height="33.75" x="0" y="190.74" class="st5"/><text x="18.68" y="200.42" class="st6">Local <tspan x="10.87" class="st7" dy="1.2em">Scheduler </tspan><tspan x="16.48" class="st7" dy="1.2em">(1,k</tspan>-1)</text></g></g><g id="group967-112" transform="translate(297.87,-158.344)"><title>Sheet.967</title><g id="shape968-113"><title>Circle.126</title><path d="M0 223.55 a0.9375 0.9375 0 1 1 1.875 -2.84217E-14 a0.9375 0.9375 0 1 1 -1.875 0 Z" class="st8"/></g><g id="shape969-115" transform="translate(4.5,0)"><title>Circle.127</title><path d="M0 223.55 a0.9375 0.9375 0 1 1 1.875 -2.84217E-14 a0.9375 0.9375 0 1 1 -1.875 0 Z" class="st8"/></g><g id="shape970-117" transform="translate(9,0)"><title>Circle.128</title><path d="M0 223.55 a0.9375 0.9375 0 1 1 1.875 -2.84217E-14 a0.9375 0.9375 0 1 1 -1.875 0 Z" class="st8"/></g></g><g id="shape971-119" transform="translate(134.276,-81.7629)"><title>Dynamic connector.971</title><path d="M0 224.49 L104.06 174.51" class="st4"/></g><g id="shape972-122" transform="translate(170.276,-81.7629)"><title>Dynamic connector.972</title><path d="M0 224.49 L107.16 174.51" class="st4"/></g><g id="shape973-125" transform="translate(222.026,-81.7629)"><title>Dynamic connector.973</title><path d="M0 224.49 L107.16 174.51" class="st4"/></g><g id="shape974-128" transform="translate(258.026,-81.7629)"><title>Dynamic connector.974</title><path d="M0 224.49 L107.16 174.51" class="st4"/></g><g id="shape978-131" transform="translate(171.12,-173.651)"><title>Dynamic connector.978</title><path d="M6.18 233.49 L6.54 233.49 L46.69 233.49" class="st10"/></g><g id="shape979-137" transform="translate(151.714,-208.245)"><title>Rectangle.979</title><desc>External Victim</desc><rect width="83.25" height="16.125" x="0" y="208.365" class="st12"/><text x="10.9" y="219.43" class="st13">External Victim</text></g></g></svg>