<svg xmlns="http://www.w3.org/2000/svg" xmlns:ev="http://www.w3.org/2001/xml-events" xmlns:xlink="http://www.w3.org/1999/xlink" width="289.82" height="274.82" class="st15" color-interpolation-filters="sRGB" viewBox="0 0 217.365 206.115" xml:space="preserve"><style type="text/css">.st1{fill:#ddd6e5;stroke:#000;stroke-linecap:round;stroke-linejoin:round;stroke-width:.24}.st2{fill:#000;font-family:Calibri;font-size:.833336em}.st3,.st4,.st5{stroke:#000;stroke-linecap:round;stroke-linejoin:round}.st3{fill:#eee7a4;stroke-width:.24}.st4{stroke-width:.75}.st5{fill:#fff;stroke-width:.24}.st6{fill:#000;font-family:Calibri;font-size:.666664em}.st7{font-size:1em}.st10{stroke:#000;stroke-width:.24}.st10,.st11,.st12,.st8,.st9{stroke-linecap:round;stroke-linejoin:round}.st8,.st9{stroke:#000;stroke-width:.24}.st8{fill:#d8d8d8;stroke-dasharray:1.68,1.2}.st9{fill:#000}.st10{fill:#f8f4d6}.st11,.st12{fill:none;stroke:red;stroke-width:.75}.st12{stroke:none;stroke-width:.24}.st13{fill:red;font-family:Calibri;font-size:.833336em}.st14{stroke:red;stroke-linecap:round;stroke-linejoin:round;stroke-width:.75}.st15{fill:none;fill-rule:evenodd;font-size:12px;overflow:visible;stroke-linecap:square;stroke-miterlimit:3}</style><g><title>Page-1</title><g id="shape785-1" transform="translate(46.245,-123.307)"><title>Rectangle.785</title><desc>Micro-scheduler (q)</desc><rect width="171" height="82.688" x="0" y="123.427" class="st1"/><text x="45.45" y="136.43" class="st2">Micro-scheduler (q)</text></g><g id="shape786-4" transform="translate(46.245,-0.12)"><title>Rectangle.786</title><desc>Worker Pool (j)</desc><rect width="171" height="87.75" x="0" y="118.365" class="st3"/><text x="54.67" y="199.12" class="st2">Worker Pool (j)</text></g><g id="shape788-7" transform="translate(114.87,-81.7629)"><title>Dynamic connector.788</title><path d="M-9 206.12 L-9 156.13" class="st4"/></g><g id="shape789-10" transform="translate(166.62,-81.7629)"><title>Dynamic connector.789</title><path d="M-9 206.12 L-9 156.13" class="st4"/></g><g id="shape790-13" transform="translate(202.62,-81.7629)"><title>Dynamic connector.790</title><path d="M-9 206.12 L-9 156.13" class="st4"/></g><g id="group791-16" transform="translate(-83.37,74.37) rotate(-90)"><title>Sheet.791</title><g id="shape792-17"><title>Rectangle.400</title><desc>Local Scheduler (q,1)</desc><rect width="54" height="33.75" x="0" y="172.365" class="st5"/><text x="18.68" y="182.04" class="st6">Local <tspan x="10.87" class="st7" dy="1.2em">Scheduler </tspan><tspan x="19.45" class="st7" dy="1.2em">(q,1)</tspan></text></g></g><g id="group793-22" transform="translate(-119.37,74.37) rotate(-90)"><title>Sheet.793</title><g id="shape794-23"><title>Rectangle.400</title><desc>Local Scheduler (q,0)</desc><path d="M0 206.12 L54 206.12 L54 172.37 L0 172.37 L0 206.12 Z" class="st8"/><text x="18.68" y="182.04" class="st6">Local <tspan x="10.87" class="st7" dy="1.2em">Scheduler </tspan><tspan x="19.45" class="st7" dy="1.2em">(q,0)</tspan></text></g></g><g id="group795-28" transform="translate(4.38,74.37) rotate(-90)"><title>Sheet.795</title><g id="shape796-29"><title>Rectangle.400</title><desc>Local Scheduler (q,k)</desc><rect width="54" height="33.75" x="0" y="172.365" class="st5"/><text x="18.68" y="182.04" class="st6">Local <tspan x="10.87" class="st7" dy="1.2em">Scheduler </tspan><tspan x="19.66" class="st7" dy="1.2em">(q,k)</tspan></text></g></g><g id="group797-34" transform="translate(-31.62,74.37) rotate(-90)"><title>Sheet.797</title><g id="shape798-35"><title>Rectangle.400</title><desc>Local Scheduler (q,k-1)</desc><rect width="54" height="33.75" x="0" y="172.365" class="st5"/><text x="18.68" y="182.04" class="st6">Local <tspan x="10.87" class="st7" dy="1.2em">Scheduler </tspan><tspan x="16.4" class="st7" dy="1.2em">(q,k</tspan>-1)</text></g></g><g id="group799-40" transform="translate(126.307,-158.344)"><title>Sheet.799</title><g id="shape800-41"><title>Circle.126</title><path d="M0 205.18 a0.9375 0.9375 0 1 1 1.875 -2.84217E-14 a0.9375 0.9375 0 1 1 -1.875 0 Z" class="st9"/></g><g id="shape801-43" transform="translate(4.5,0)"><title>Circle.127</title><path d="M0 205.18 a0.9375 0.9375 0 1 1 1.875 -2.84217E-14 a0.9375 0.9375 0 1 1 -1.875 0 Z" class="st9"/></g><g id="shape802-45" transform="translate(9,0)"><title>Circle.128</title><path d="M0 205.18 a0.9375 0.9375 0 1 1 1.875 -2.84217E-14 a0.9375 0.9375 0 1 1 -1.875 0 Z" class="st9"/></g></g><g id="group803-47" transform="translate(126.307,-54.8444)"><title>Sheet.803</title><g id="shape804-48"><title>Circle.126</title><path d="M0 205.18 a0.9375 0.9375 0 1 1 1.875 -2.84217E-14 a0.9375 0.9375 0 1 1 -1.875 0 Z" class="st9"/></g><g id="shape805-50" transform="translate(4.5,0)"><title>Circle.127</title><path d="M0 205.18 a0.9375 0.9375 0 1 1 1.875 -2.84217E-14 a0.9375 0.9375 0 1 1 -1.875 0 Z" class="st9"/></g><g id="shape806-52" transform="translate(9,0)"><title>Circle.128</title><path d="M0 205.18 a0.9375 0.9375 0 1 1 1.875 -2.84217E-14 a0.9375 0.9375 0 1 1 -1.875 0 Z" class="st9"/></g></g><g id="group807-54" transform="translate(-83.37,184.138) rotate(-90)"><title>Sheet.807</title><g id="shape808-55"><title>Rectangle.400</title><desc>Worker (j,1)</desc><rect width="59.786" height="33.75" x="0" y="172.365" class="st10"/><text x="10.31" y="183.57" class="st6">Worker (j,1)</text></g><g id="shape809-58" transform="translate(4.98212,-3.37498)"><title>Rectangle.399</title><desc>SW Thread</desc><rect width="49.821" height="15.75" x="0" y="190.365" class="st5"/><text x="7.16" y="200.64" class="st6">SW Thread</text></g></g><g id="group810-61" transform="translate(-119.37,184.138) rotate(-90)"><title>Sheet.810</title><g id="shape811-62"><title>Rectangle.400</title><desc>Worker (j,0)</desc><rect width="59.786" height="33.75" x="0" y="172.365" class="st10"/><text x="10.31" y="183.57" class="st6">Worker (j,0)</text></g><g id="shape812-65" transform="translate(4.98212,-3.37498)"><title>Rectangle.399</title><desc>SW Thread</desc><rect width="49.821" height="15.75" x="0" y="190.365" class="st5"/><text x="7.16" y="200.64" class="st6">SW Thread</text></g></g><g id="group813-68" transform="translate(4.38,184.138) rotate(-90)"><title>Sheet.813</title><g id="shape814-69"><title>Rectangle.400</title><desc>Worker (j,k)</desc><rect width="59.786" height="33.75" x="0" y="172.365" class="st10"/><text x="10.52" y="183.57" class="st6">Worker (j,k)</text></g><g id="shape815-72" transform="translate(4.98212,-3.37498)"><title>Rectangle.399</title><desc>SW Thread</desc><rect width="49.821" height="15.75" x="0" y="190.365" class="st5"/><text x="7.16" y="200.64" class="st6">SW Thread</text></g></g><g id="group816-75" transform="translate(-31.62,184.138) rotate(-90)"><title>Sheet.816</title><g id="shape817-76"><title>Rectangle.400</title><desc>Worker (j,k-1)</desc><rect width="59.786" height="33.75" x="0" y="172.365" class="st10"/><text x="7.27" y="183.57" class="st6">Worker (j,k-1)</text></g><g id="shape818-79" transform="translate(4.98212,-3.37498)"><title>Rectangle.399</title><desc>SW Thread</desc><rect width="49.821" height="15.75" x="0" y="190.365" class="st5"/><text x="7.16" y="200.64" class="st6">SW Thread</text></g></g><g id="shape819-82" transform="translate(51.87,-20.9325)"><title>Rectangle.819</title><rect width="36" height="61.875" x="0" y="144.24" class="st11"/></g><g id="shape820-84" transform="translate(0.12,-43.8075)"><title>Rectangle.820</title><desc>Master</desc><rect width="38.25" height="16.125" x="0" y="189.99" class="st12"/><text x="4.59" y="201.05" class="st13">Master</text></g><g id="shape821-87" transform="translate(36.12,-60.87)"><title>Dynamic connector.821</title><path d="M2.25 215.12 L15.75 215.12" class="st14"/></g><g id="shape822-90" transform="translate(87.87,-130.62)"><title>Rectangle.822</title><rect width="36" height="56.25" x="0" y="149.865" class="st11"/></g><g id="shape823-92" transform="translate(39.495,-158.745)"><title>Dynamic connector.823</title><path d="M0 206.12 L4.25 206.12 L4.25 174.3 L66.37 174.3 L66.37 177.99" class="st14"/></g><g id="shape824-95" transform="translate(1.245,-150.683)"><title>Rectangle.824</title><desc>Master</desc><rect width="38.25" height="16.125" x="0" y="189.99" class="st12"/><text x="4.59" y="201.05" class="st13">Master</text></g></g></svg>