<svg xmlns="http://www.w3.org/2000/svg" xmlns:ev="http://www.w3.org/2001/xml-events" xmlns:xlink="http://www.w3.org/1999/xlink" width="190.458" height="190.433" class="st7" color-interpolation-filters="sRGB" viewBox="0 0 142.844 142.825" xml:space="preserve"><style type="text/css">.st1,.st2{stroke:#9dbb61}.st1{marker-end:url(#mrkr4-6);stroke-linecap:round;stroke-linejoin:round;stroke-width:2}.st2{fill:#9dbb61;fill-opacity:1;stroke-opacity:1;stroke-width:.44247787610619}.st3,.st4{stroke-linecap:round;stroke-linejoin:round;stroke-width:1}.st3{fill:#fff;stroke:#002060}.st4{marker-end:url(#mrkr4-37);stroke-dasharray:7,5}.st4,.st5,.st6{stroke:#c05046}.st5{fill:#c05046;fill-opacity:1;stroke-opacity:1;stroke-width:.28409090909091}.st6{stroke-dasharray:7,5;stroke-linecap:round;stroke-linejoin:round;stroke-width:1}.st7{fill:none;fill-rule:evenodd;font-size:12px;overflow:visible;stroke-linecap:square;stroke-miterlimit:3}</style><defs id="Markers"><g id="lend4"><path d="M 2 1 L 0 0 L 2 -1 L 2 1" style="stroke:none"/></g><marker id="mrkr4-6" class="st2" markerUnits="strokeWidth" orient="auto" overflow="visible" refX="-4.52"><use transform="scale(-2.26,-2.26)" xlink:href="#lend4"/></marker><marker id="mrkr4-37" class="st5" markerUnits="strokeWidth" orient="auto" overflow="visible" refX="-6.68"><use transform="scale(-3.52,-3.52)" xlink:href="#lend4"/></marker></defs><g><title>Page-1</title><g id="shape102-1" transform="translate(78.5701,-115.817)"><title>Dynamic connector.102</title><path d="M0 142.82 L-19.22 164.13" class="st1"/></g><g id="shape103-7" transform="translate(100.532,-115.817)"><title>Dynamic connector.103</title><path d="M0 142.82 L20.1 164.24" class="st1"/></g><g id="shape104-12" transform="translate(64.2736,-61.2965)"><title>Dynamic connector.104</title><path d="M0 142.82 L19.42 165.68" class="st1"/></g><g id="shape106-17" transform="translate(74.0237,-111.27)"><title>Circle.106</title><path d="M0 127.3 A15.5273 15.5273 0 0 1 31.05 127.3 A15.5273 15.5273 0 1 1 0 127.3 Z" class="st3"/></g><g id="shape107-19" transform="translate(74.0237,-0.5)"><title>Circle.107</title><path d="M0 127.3 A15.5273 15.5273 0 0 1 31.05 127.3 A15.5273 15.5273 0 1 1 0 127.3 Z" class="st3"/></g><g id="shape108-21" transform="translate(37.7654,-56.7501)"><title>Circle.108</title><path d="M0 127.3 A15.5273 15.5273 0 0 1 31.05 127.3 A15.5273 15.5273 0 1 1 0 127.3 Z" class="st3"/></g><g id="shape109-23" transform="translate(111.289,-56.7501)"><title>Circle.109</title><path d="M0 127.3 A15.5273 15.5273 0 0 1 31.05 127.3 A15.5273 15.5273 0 1 1 0 127.3 Z" class="st3"/></g><g id="shape112-25" transform="translate(0.5,-0.5)"><title>Circle.112</title><path d="M0 127.3 A15.5273 15.5273 0 0 1 31.05 127.3 A15.5273 15.5273 0 1 1 0 127.3 Z" class="st3"/></g><g id="shape113-27" transform="translate(42.3118,-61.2965)"><title>Dynamic connector.113</title><path d="M0 142.82 L-20.3 165.79" class="st1"/></g><g id="shape114-32" transform="translate(31.5545,-16.0273)"><title>Dynamic connector.114</title><path d="M0 142.82 C5.43 142.82 12.95 142.82 17 136.34 C20.75 130.33 21.53 118.76 21.7 109.14 L21.7 108.78" class="st4"/></g><g id="shape115-38" transform="translate(106.315,-16.0273)"><title>Dynamic connector.115</title><path d="M-1.24 142.82 C12.26 142.82 12.2 135.62 10.22 130.01 C4.85 114.73 -14.68 111.28 -16.62 54.62 L-16.63 54.26" class="st4"/></g><g id="shape150-43" transform="translate(68.8199,-72.2774)"><title>Dynamic connector.150</title><path d="M0 142.82 C5.18 142.82 12.34 142.82 16.21 136.62 C19.75 130.93 20.52 120.02 20.68 110.87 L20.69 110.51" class="st4"/></g><g id="shape151-48" transform="translate(111.289,-72.2774)"><title>Dynamic connector.151</title><path d="M0 142.82 C-5.43 142.82 -12.98 142.82 -17.04 136.56 C-21.74 129.28 -21.74 113.58 -21.74 103.83" class="st6"/></g></g></svg>