<svg xmlns="http://www.w3.org/2000/svg" xmlns:ev="http://www.w3.org/2001/xml-events" xmlns:xlink="http://www.w3.org/1999/xlink" width="241.333" height="332.833" class="st9" color-interpolation-filters="sRGB" viewBox="0 0 181 249.625" xml:space="preserve"><style type="text/css">.st1,.st2{stroke:#002060}.st1{marker-end:url(#mrkr4-6);stroke-linecap:round;stroke-linejoin:round;stroke-width:2}.st2{fill:#002060;fill-opacity:1;stroke-opacity:1;stroke-width:.44247787610619}.st3{fill:#fff2cc;stroke:#bf9000;stroke-linecap:round;stroke-linejoin:round;stroke-width:1}.st4{fill:#000;font-family:Calibri;font-size:1.5em}.st5{fill:#002060;stroke:none;stroke-linecap:round;stroke-linejoin:round}.st5,.st6{stroke-width:.24}.st6,.st7{stroke-linecap:round;stroke-linejoin:round}.st6{fill:#000;stroke:#000}.st7{fill:none;stroke:none;stroke-width:.75}.st8{fill:#002060;font-family:Calibri;font-size:1.00001em}.st9{fill:none;fill-rule:evenodd;font-size:12px;overflow:visible;stroke-linecap:square;stroke-miterlimit:3}</style><defs id="Markers"><g id="lend4"><path d="M 2 1 L 0 0 L 2 -1 L 2 1" style="stroke:none"/></g><marker id="mrkr4-6" class="st2" markerUnits="strokeWidth" orient="auto" overflow="visible" refX="-4.52"><use transform="scale(-2.26,-2.26)" xlink:href="#lend4"/></marker></defs><g><title>Page-1</title><g id="shape328-1" transform="translate(90.5,-213.125)"><title>Dynamic connector.328</title><path d="M0 249.62 L16.53 275.39" class="st1"/></g><g id="shape339-7" transform="translate(90.5,-213.125)"><title>Dynamic connector.339</title><path d="M0 249.62 L-16.51 275.39" class="st1"/></g><g id="shape326-12" transform="translate(72.5,-213.125)"><title>Square.326</title><desc>EE</desc><rect width="36" height="36" x="0" y="213.625" class="st3"/><text x="9.21" y="237.03" class="st4">EE</text></g><g id="group329-15" transform="translate(92.7639,-55.625)"><title>Sheet.329</title><g id="shape298-16" transform="translate(-76.9473,-91.3806) rotate(-19)"><title>Rectangle.298</title><rect width="40.5" height="13.277" x="0" y="236.348" class="st5"/></g><g id="shape299-18" transform="translate(-71.7833,-76.3833) rotate(-19)"><title>Rectangle.299</title><rect width="40.5" height="13.277" x="0" y="236.348" class="st5"/></g><g id="shape300-20" transform="translate(-66.6194,-61.3861) rotate(-19)"><title>Rectangle.300</title><rect width="40.5" height="13.277" x="0" y="236.348" class="st5"/></g><g id="shape301-22" transform="translate(-61.4554,-46.3889) rotate(-19)"><title>Rectangle.301</title><rect width="40.5" height="13.277" x="0" y="236.348" class="st5"/></g><g id="shape302-24" transform="translate(-56.2915,-31.3917) rotate(-19)"><title>Rectangle.302</title><rect width="40.5" height="13.277" x="0" y="236.348" class="st5"/></g><g id="shape303-26" transform="translate(-51.1275,-16.3945) rotate(-19)"><title>Rectangle.303</title><rect width="40.5" height="13.277" x="0" y="236.348" class="st5"/></g><g id="shape304-28" transform="translate(-45.9636,-1.39729) rotate(-19)"><title>Rectangle.304</title><rect width="40.5" height="13.277" x="0" y="236.348" class="st5"/></g><g id="shape305-30" transform="translate(-40.7996,13.5999) rotate(-19)"><title>Rectangle.305</title><rect width="40.5" height="13.277" x="0" y="236.348" class="st5"/></g></g><g id="group330-32" transform="translate(88.2639,-55.625) scale(-1,1)"><title>Sheet.330</title><g id="shape331-33" transform="translate(-76.9473,-91.3806) rotate(-19)"><title>Rectangle.298</title><rect width="40.5" height="13.277" x="0" y="236.348" class="st5"/></g><g id="shape332-35" transform="translate(-71.7833,-76.3833) rotate(-19)"><title>Rectangle.299</title><rect width="40.5" height="13.277" x="0" y="236.348" class="st5"/></g><g id="shape333-37" transform="translate(-66.6194,-61.3861) rotate(-19)"><title>Rectangle.300</title><rect width="40.5" height="13.277" x="0" y="236.348" class="st5"/></g><g id="shape334-39" transform="translate(-61.4554,-46.3889) rotate(-19)"><title>Rectangle.301</title><rect width="40.5" height="13.277" x="0" y="236.348" class="st5"/></g><g id="shape335-41" transform="translate(-56.2915,-31.3917) rotate(-19)"><title>Rectangle.302</title><rect width="40.5" height="13.277" x="0" y="236.348" class="st5"/></g><g id="shape336-43" transform="translate(-51.1275,-16.3945) rotate(-19)"><title>Rectangle.303</title><rect width="40.5" height="13.277" x="0" y="236.348" class="st5"/></g><g id="shape337-45" transform="translate(-45.9636,-1.39729) rotate(-19)"><title>Rectangle.304</title><rect width="40.5" height="13.277" x="0" y="236.348" class="st5"/></g><g id="shape338-47" transform="translate(-40.7996,13.5999) rotate(-19)"><title>Rectangle.305</title><rect width="40.5" height="13.277" x="0" y="236.348" class="st5"/></g></g><g id="shape340-49" transform="translate(0.5,-0.5)"><title>Square.340</title><desc>EE</desc><rect width="36" height="36" x="0" y="213.625" class="st3"/><text x="9.21" y="237.03" class="st4">EE</text></g><g id="shape342-52" transform="translate(32.5734,-62.2178)"><title>Dynamic connector.342</title><path d="M-3.93 249.62 L-10.76 266.93" class="st1"/></g><g id="shape343-57" transform="translate(144.5,-0.5)"><title>Square.343</title><desc>EE</desc><rect width="36" height="36" x="0" y="213.625" class="st3"/><text x="9.21" y="237.03" class="st4">EE</text></g><g id="shape344-60" transform="translate(148.441,-62.2178)"><title>Dynamic connector.344</title><path d="M3.94 249.62 L10.75 266.93" class="st1"/></g><g id="shape345-65" transform="translate(79.25,-105.125)"><title>Circle.345</title><path d="M0 247.37 A2.25 2.25 0 0 1 4.5 247.37 A2.25 2.25 0 1 1 0 247.37 Z" class="st6"/></g><g id="shape346-67" transform="translate(88.25,-105.125)"><title>Circle.346</title><path d="M0 247.37 A2.25 2.25 0 0 1 4.5 247.37 A2.25 2.25 0 1 1 0 247.37 Z" class="st6"/></g><g id="shape347-69" transform="translate(97.25,-105.125)"><title>Circle.347</title><path d="M0 247.37 A2.25 2.25 0 0 1 4.5 247.37 A2.25 2.25 0 1 1 0 247.37 Z" class="st6"/></g><g id="shape348-71" transform="translate(79.25,-17.375)"><title>Circle.348</title><path d="M0 247.37 A2.25 2.25 0 0 1 4.5 247.37 A2.25 2.25 0 1 1 0 247.37 Z" class="st6"/></g><g id="shape349-73" transform="translate(88.25,-17.375)"><title>Circle.349</title><path d="M0 247.37 A2.25 2.25 0 0 1 4.5 247.37 A2.25 2.25 0 1 1 0 247.37 Z" class="st6"/></g><g id="shape350-75" transform="translate(97.25,-17.375)"><title>Circle.350</title><path d="M0 247.37 A2.25 2.25 0 0 1 4.5 247.37 A2.25 2.25 0 1 1 0 247.37 Z" class="st6"/></g><g id="shape413-77" transform="translate(28.6319,-189.735)"><title>Sheet.413</title><desc>push</desc><rect width="40.5" height="20" x="0" y="229.625" class="st7"/><text x="8.45" y="243.23" class="st8">push</text></g><g id="shape414-80" transform="translate(72.5,-35.375)"><title>Sheet.414</title><desc>pop</desc><rect width="36" height="20" x="0" y="229.625" class="st7"/><text x="8.53" y="243.23" class="st8">pop</text></g></g></svg>