<svg xmlns="http://www.w3.org/2000/svg" xmlns:ev="http://www.w3.org/2001/xml-events" xmlns:xlink="http://www.w3.org/1999/xlink" width="301.82" height="260.57" class="st14" color-interpolation-filters="sRGB" viewBox="0 0 226.365 195.428" xml:space="preserve"><style type="text/css">.st1{fill:#eee7a4;stroke:#000;stroke-linecap:round;stroke-linejoin:round;stroke-width:.24}.st2{fill:#000;font-family:Calibri;font-size:.833336em}.st3{fill:#cbd8ef}.st3,.st4,.st5{stroke:#000;stroke-linecap:round;stroke-linejoin:round;stroke-width:.24}.st4{fill:#000}.st5{fill:#f2f2f2}.st6{fill:#000;font-family:Calibri;font-size:.666664em}.st7,.st8{stroke:#000;stroke-width:.24}.st7{fill:#fff;stroke-linecap:round;stroke-linejoin:round}.st8{fill:#f8f4d6}.st10,.st11,.st8,.st9{stroke-linecap:round;stroke-linejoin:round}.st9{stroke:#000;stroke-dasharray:1.68,1.2;stroke-width:.24}.st10,.st11{fill:none;stroke:red;stroke-width:.5}.st11{stroke:none;stroke-width:.24}.st12{fill:red;font-family:Calibri;font-size:.833336em}.st13{stroke:red;stroke-linecap:round;stroke-linejoin:round;stroke-width:.75}.st14{fill:none;fill-rule:evenodd;font-size:12px;overflow:visible;stroke-linecap:square;stroke-miterlimit:3}</style><g><title>Page-1</title><g id="shape609-1" transform="translate(55.245,-107.557)"><title>Rectangle.609</title><desc>Worker Pool (j)</desc><rect width="171" height="87.75" x="0" y="107.677" class="st1"/><text x="54.67" y="120.68" class="st2">Worker Pool (j)</text></g><g id="shape611-4" transform="translate(86.745,-0.120002)"><title>Rectangle.611</title><desc>Group</desc><rect width="108" height="90" x="0" y="105.428" class="st3"/><text x="41.21" y="118.43" class="st2">Group</text></g><g id="group612-7" transform="translate(135.307,-35.7194)"><title>Sheet.612</title><g id="shape613-8"><title>Circle.126</title><path d="M0 194.49 a0.9375 0.9375 0 1 1 1.875 0 a0.9375 0.9375 0 1 1 -1.875 0 Z" class="st4"/></g><g id="shape614-10" transform="translate(4.5,0)"><title>Circle.127</title><path d="M0 194.49 a0.9375 0.9375 0 1 1 1.875 0 a0.9375 0.9375 0 1 1 -1.875 0 Z" class="st4"/></g><g id="shape615-12" transform="translate(9,0)"><title>Circle.128</title><path d="M0 194.49 a0.9375 0.9375 0 1 1 1.875 0 a0.9375 0.9375 0 1 1 -1.875 0 Z" class="st4"/></g></g><g id="shape616-14" transform="translate(93.495,-5.69385)"><title>Rectangle.170</title><desc>Core</desc><rect width="40.5" height="64.176" x="0" y="131.251" class="st5"/><text x="12.62" y="142.45" class="st6">Core</text></g><g id="shape617-17" transform="translate(147.495,-5.69385)"><title>Rectangle.341</title><desc>Core</desc><rect width="40.5" height="64.176" x="0" y="131.251" class="st5"/><text x="12.62" y="142.45" class="st6">Core</text></g><g id="group618-20" transform="translate(150.87,-9.11998)"><title>Sheet.618</title><g id="shape619-21" transform="translate(-179.678,195.428) rotate(-90)"><title>Rectangle.342</title><desc>Proc. N-1</desc><rect width="45" height="15.75" x="0" y="179.678" class="st7"/><text x="7.49" y="189.95" class="st6">Proc. N-1</text></g><g id="shape620-24" transform="translate(-161.678,195.428) rotate(-90)"><title>Rectangle.343</title><desc>Proc. N</desc><rect width="45" height="15.75" x="0" y="179.678" class="st7"/><text x="10.74" y="189.95" class="st6">Proc. N</text></g></g><g id="group621-27" transform="translate(96.87,-9.11998)"><title>Sheet.621</title><g id="shape622-28" transform="translate(-179.678,195.428) rotate(-90)"><title>Rectangle.342</title><desc>Proc. 0</desc><rect width="45" height="15.75" x="0" y="179.678" class="st7"/><text x="11.3" y="189.95" class="st6">Proc. 0</text></g><g id="shape623-31" transform="translate(-161.678,195.428) rotate(-90)"><title>Rectangle.343</title><desc>Proc 1</desc><rect width="45" height="15.75" x="0" y="179.678" class="st7"/><text x="12.31" y="189.95" class="st6">Proc 1</text></g></g><g id="group624-34" transform="translate(135.307,-147.657)"><title>Sheet.624</title><g id="shape625-35"><title>Circle.126</title><path d="M0 194.49 a0.9375 0.9375 0 1 1 1.875 -2.84217E-14 a0.9375 0.9375 0 1 1 -1.875 0 Z" class="st4"/></g><g id="shape626-37" transform="translate(4.5,0)"><title>Circle.127</title><path d="M0 194.49 a0.9375 0.9375 0 1 1 1.875 -2.84217E-14 a0.9375 0.9375 0 1 1 -1.875 0 Z" class="st4"/></g><g id="shape627-39" transform="translate(9,0)"><title>Circle.128</title><path d="M0 194.49 a0.9375 0.9375 0 1 1 1.875 -2.84217E-14 a0.9375 0.9375 0 1 1 -1.875 0 Z" class="st4"/></g></g><g id="group628-41" transform="translate(-63.6825,80.6379) rotate(-90)"><title>Sheet.628</title><g id="shape629-42"><title>Rectangle.400</title><desc>Worker (j,1)</desc><rect width="59.786" height="33.75" x="0" y="161.678" class="st8"/><text x="10.31" y="172.88" class="st6">Worker (j,1)</text></g><g id="shape630-45" transform="translate(4.98212,-3.37498)"><title>Rectangle.399</title><desc>SW Thread</desc><rect width="49.821" height="15.75" x="0" y="179.678" class="st7"/><text x="7.16" y="189.95" class="st6">SW Thread</text></g></g><g id="group631-48" transform="translate(-99.6825,80.6379) rotate(-90)"><title>Sheet.631</title><g id="shape632-49"><title>Rectangle.400</title><desc>Worker (j,0)</desc><rect width="59.786" height="33.75" x="0" y="161.678" class="st8"/><text x="10.31" y="172.88" class="st6">Worker (j,0)</text></g><g id="shape633-52" transform="translate(4.98212,-3.37498)"><title>Rectangle.399</title><desc>SW Thread</desc><rect width="49.821" height="15.75" x="0" y="179.678" class="st7"/><text x="7.16" y="189.95" class="st6">SW Thread</text></g></g><g id="group634-55" transform="translate(24.0675,80.6379) rotate(-90)"><title>Sheet.634</title><g id="shape635-56"><title>Rectangle.400</title><desc>Worker (j,k)</desc><rect width="59.786" height="33.75" x="0" y="161.678" class="st8"/><text x="10.52" y="172.88" class="st6">Worker (j,k)</text></g><g id="shape636-59" transform="translate(4.98212,-3.37498)"><title>Rectangle.399</title><desc>SW Thread</desc><rect width="49.821" height="15.75" x="0" y="179.678" class="st7"/><text x="7.16" y="189.95" class="st6">SW Thread</text></g></g><g id="group637-62" transform="translate(-11.9325,80.6379) rotate(-90)"><title>Sheet.637</title><g id="shape638-63"><title>Rectangle.400</title><desc>Worker (j,k-1)</desc><rect width="59.786" height="33.75" x="0" y="161.678" class="st8"/><text x="7.27" y="172.88" class="st6">Worker (j,k-1)</text></g><g id="shape639-66" transform="translate(4.98212,-3.37498)"><title>Rectangle.399</title><desc>SW Thread</desc><rect width="49.821" height="15.75" x="0" y="179.678" class="st7"/><text x="7.16" y="189.95" class="st6">SW Thread</text></g></g><g id="shape640-69" transform="translate(242.778,32.8865) rotate(73.6592)"><title>Multi-Line.640</title><path d="M0 195.43 L111.96 195.43" class="st9"/></g><g id="shape641-72" transform="translate(413.778,142.854) rotate(106.341)"><title>Multi-Line.641</title><path d="M0 195.43 L111.96 195.43" class="st9"/></g><g id="shape643-75" transform="translate(60.87,-113.745)"><title>Rectangle.643</title><rect width="36" height="61.875" x="0" y="133.553" class="st10"/></g><g id="shape647-77" transform="translate(0.12,-136.62)"><title>Rectangle.647</title><desc>Master</desc><rect width="38.25" height="16.125" x="0" y="179.303" class="st11"/><text x="4.59" y="190.37" class="st12">Master</text></g><g id="shape648-80" transform="translate(38.37,-135.683)"><title>Dynamic connector.648</title><path d="M0 186.43 L22.5 186.43" class="st13"/></g></g></svg>